custom-analysis
version=1
nRows=5
nColumns=133
inDegrees=no

This file contains tibia displacement and acting force.

Units are S.I. units (seconds, meters, Newtons, ...)
Angles are in degrees.

endheader
time	APT	knee_angle	aACL_R_force	pACL_R_force	aPCL_R_force	pPCL_R_force	aMCL_R_force	aLCL_R_force	aPCL_L_force	pPCL_L_force	aMCL_L_force	aLCL_L_force	aACL_R_length	pACL_R_length	aPCL_R_length	pPCL_R_length	aMCL_R_length	aLCL_R_length	aPCL_L_length	pPCL_L_length	aMCL_L_length	aLCL_L_length	aACL_R_strain	pACL_R_strain	aPCL_R_strain	pPCL_R_strain	aMCL_R_strain	aLCL_R_strain	aPCL_L_strain	pPCL_L_strain	aMCL_L_strain	aLCL_L_strain	femur_lat_meniscii_l.femur_lat_l.force.X	femur_lat_meniscii_l.femur_lat_l.force.Y	femur_lat_meniscii_l.femur_lat_l.force.Z	femur_lat_meniscii_l.femur_lat_l.torque.X	femur_lat_meniscii_l.femur_lat_l.torque.Y	femur_lat_meniscii_l.femur_lat_l.torque.Z	femur_lat_meniscii_l.meniscus_lat_l.force.X	femur_lat_meniscii_l.meniscus_lat_l.force.Y	femur_lat_meniscii_l.meniscus_lat_l.force.Z	femur_lat_meniscii_l.meniscus_lat_l.torque.X	femur_lat_meniscii_l.meniscus_lat_l.torque.Y	femur_lat_meniscii_l.meniscus_lat_l.torque.Z	femur_med_meniscii_l.femur_med_l.force.X	femur_med_meniscii_l.femur_med_l.force.Y	femur_med_meniscii_l.femur_med_l.force.Z	femur_med_meniscii_l.femur_med_l.torque.X	femur_med_meniscii_l.femur_med_l.torque.Y	femur_med_meniscii_l.femur_med_l.torque.Z	femur_med_meniscii_l.meniscus_med_l.force.X	femur_med_meniscii_l.meniscus_med_l.force.Y	femur_med_meniscii_l.meniscus_med_l.force.Z	femur_med_meniscii_l.meniscus_med_l.torque.X	femur_med_meniscii_l.meniscus_med_l.torque.Y	femur_med_meniscii_l.meniscus_med_l.torque.Z	femur_lat_meniscii_r.femur_lat_r.force.X	femur_lat_meniscii_r.femur_lat_r.force.Y	femur_lat_meniscii_r.femur_lat_r.force.Z	femur_lat_meniscii_r.femur_lat_r.torque.X	femur_lat_meniscii_r.femur_lat_r.torque.Y	femur_lat_meniscii_r.femur_lat_r.torque.Z	femur_lat_meniscii_r.meniscus_lat_r.force.X	femur_lat_meniscii_r.meniscus_lat_r.force.Y	femur_lat_meniscii_r.meniscus_lat_r.force.Z	femur_lat_meniscii_r.meniscus_lat_r.torque.X	femur_lat_meniscii_r.meniscus_lat_r.torque.Y	femur_lat_meniscii_r.meniscus_lat_r.torque.Z	femur_med_meniscii_r.femur_med_r.force.X	femur_med_meniscii_r.femur_med_r.force.Y	femur_med_meniscii_r.femur_med_r.force.Z	femur_med_meniscii_r.femur_med_r.torque.X	femur_med_meniscii_r.femur_med_r.torque.Y	femur_med_meniscii_r.femur_med_r.torque.Z	femur_med_meniscii_r.meniscus_med_r.force.X	femur_med_meniscii_r.meniscus_med_r.force.Y	femur_med_meniscii_r.meniscus_med_r.force.Z	femur_med_meniscii_r.meniscus_med_r.torque.X	femur_med_meniscii_r.meniscus_med_r.torque.Y	femur_med_meniscii_r.meniscus_med_r.torque.Z	femur_med_tibia_l.tibia_upper_l.force.X	femur_med_tibia_l.tibia_upper_l.force.Y	femur_med_tibia_l.tibia_upper_l.force.Z	femur_med_tibia_l.tibia_upper_l.torque.X	femur_med_tibia_l.tibia_upper_l.torque.Y	femur_med_tibia_l.tibia_upper_l.torque.Z	femur_med_tibia_l.femur_med_l.force.X	femur_med_tibia_l.femur_med_l.force.Y	femur_med_tibia_l.femur_med_l.force.Z	femur_med_tibia_l.femur_med_l.torque.X	femur_med_tibia_l.femur_med_l.torque.Y	femur_med_tibia_l.femur_med_l.torque.Z	femur_lat_tibia_l.tibia_upper_l.force.X	femur_lat_tibia_l.tibia_upper_l.force.Y	femur_lat_tibia_l.tibia_upper_l.force.Z	femur_lat_tibia_l.tibia_upper_l.torque.X	femur_lat_tibia_l.tibia_upper_l.torque.Y	femur_lat_tibia_l.tibia_upper_l.torque.Z	femur_lat_tibia_l.femur_lat_l.force.X	femur_lat_tibia_l.femur_lat_l.force.Y	femur_lat_tibia_l.femur_lat_l.force.Z	femur_lat_tibia_l.femur_lat_l.torque.X	femur_lat_tibia_l.femur_lat_l.torque.Y	femur_lat_tibia_l.femur_lat_l.torque.Z	femur_med_tibia_r.tibia_upper_r.force.X	femur_med_tibia_r.tibia_upper_r.force.Y	femur_med_tibia_r.tibia_upper_r.force.Z	femur_med_tibia_r.tibia_upper_r.torque.X	femur_med_tibia_r.tibia_upper_r.torque.Y	femur_med_tibia_r.tibia_upper_r.torque.Z	femur_med_tibia_r.femur_med_r.force.X	femur_med_tibia_r.femur_med_r.force.Y	femur_med_tibia_r.femur_med_r.force.Z	femur_med_tibia_r.femur_med_r.torque.X	femur_med_tibia_r.femur_med_r.torque.Y	femur_med_tibia_r.femur_med_r.torque.Z	femur_lat_tibia_r.tibia_upper_r.force.X	femur_lat_tibia_r.tibia_upper_r.force.Y	femur_lat_tibia_r.tibia_upper_r.force.Z	femur_lat_tibia_r.tibia_upper_r.torque.X	femur_lat_tibia_r.tibia_upper_r.torque.Y	femur_lat_tibia_r.tibia_upper_r.torque.Z	femur_lat_tibia_r.femur_lat_r.force.X	femur_lat_tibia_r.femur_lat_r.force.Y	femur_lat_tibia_r.femur_lat_r.force.Z	femur_lat_tibia_r.femur_lat_r.torque.X	femur_lat_tibia_r.femur_lat_r.torque.Y	femur_lat_tibia_r.femur_lat_r.torque.Z	femur_lat_meniscii_force_r	femur_med_meniscii_force_r	femur_lat_tibia_force_r	femur_med_tibia_force_r
      0.04779744	      0.00628598	     13.15636863	      0.00000000	      0.00000000	      0.00000000	      0.00000000	      0.00000000	      0.00000000	      0.00000000	      0.00000000	    116.99866359	      0.00000000	      0.03613312	      0.02612181	      0.02757339	      0.02285713	      0.06074747	      0.06040693	      0.01525851	      0.01651186	      0.06550154	      0.04489616	     -0.00552053	     -0.02886418	     -0.08998702	     -0.05352718	     -0.01721096	     -0.04264443	      0.00000079	     -0.32847694	      0.07222957	     -0.00000086	      2.76307435	     50.99597937	     -9.56042239	      5.21997485	     -0.02578839	      1.48581788	     -2.76307435	    -50.99597937	      9.56042239	     -1.74637766	      0.02558040	     -0.48301696	     -3.31599387	     20.97615968	     -3.40468921	      0.94473225	     -0.02138609	     -1.00501789	      3.31599387	    -20.97615968	      3.40468921	      0.28075727	      0.00368718	     -0.29758878	   -346.03587388	    142.58973259	     62.26472626	     -3.53876365	    -34.09877250	     58.41228750	    346.03587388	   -142.58973259	    -62.26472626	      4.48628968	     11.63441552	     -1.70177317	   -460.69431338	     56.07129757	      4.88956553	      0.93729961	      7.32714790	     21.49817116	    460.69431338	    -56.07129757	     -4.88956553	     -0.68553199	     -7.37779697	      2.80416627	      0.00000000	      0.00000000	      0.00000000	      0.00000000	      0.00000000	      0.00000000	      0.00000000	      0.00000000	      0.00000000	      0.00000000	      0.00000000	      0.00000000	      0.00000000	      0.00000000	      0.00000000	      0.00000000	      0.00000000	      0.00000000	      0.00000000	      0.00000000	      0.00000000	      0.00000000	      0.00000000	      0.00000000	   1079.46433623	     16.24526113	     72.32277748	      0.15130006	    -20.62672099	      5.22210337	  -1079.46433623	    -16.24526113	    -72.32277748	     -0.66148498	     52.57497743	     -4.78353259	    159.73245123	     -4.69915047	    -41.52642310	      0.31604585	      5.72926324	      0.57846143	   -159.73245123	      4.69915047	     41.52642310	     -0.04140097	    -20.99231200	      2.20514127	    379.40684494	    464.11975679	    165.10899978	   1082.00635203
      0.04827889	      0.00638885	     13.37649290	      0.00000000	      0.00000000	      0.00000000	      0.00000000	      0.00000000	      0.00000000	      0.00000000	      0.00000000	    116.99866359	      0.00000000	      0.03615025	      0.02612663	      0.02759092	      0.02286543	      0.06074762	      0.06038183	      0.01525851	      0.01651186	      0.06550154	      0.04489616	     -0.00504893	     -0.02868485	     -0.08940853	     -0.05318339	     -0.01720845	     -0.04304223	      0.00000079	     -0.32847694	      0.07222957	     -0.00000086	      2.76307435	     50.99597937	     -9.56042239	      5.21997485	     -0.02578839	      1.48581788	     -2.76307435	    -50.99597937	      9.56042239	     -1.74637766	      0.02558040	     -0.48301696	     -3.31599387	     20.97615968	     -3.40468921	      0.94473225	     -0.02138609	     -1.00501789	      3.31599387	    -20.97615968	      3.40468921	      0.28075727	      0.00368718	     -0.29758878	   -336.73282250	    139.98209955	     61.82238861	     -3.46595614	    -33.67547717	     57.32563794	    336.73282250	   -139.98209955	    -61.82238861	      4.40534987	     11.33758093	     -1.63011414	   -460.30133020	     57.97072812	      2.49245670	      0.97050001	      8.29795118	     22.25813046	    460.30133020	    -57.97072812	     -2.49245670	     -0.72672690	     -7.44073176	      2.82373197	      0.00000000	      0.00000000	      0.00000000	      0.00000000	      0.00000000	      0.00000000	      0.00000000	      0.00000000	      0.00000000	      0.00000000	      0.00000000	      0.00000000	      0.00000000	      0.00000000	      0.00000000	      0.00000000	      0.00000000	      0.00000000	      0.00000000	      0.00000000	      0.00000000	      0.00000000	      0.00000000	      0.00000000	   1038.54365036	      9.43300371	     69.66693038	      0.02217582	    -19.85474569	      5.03789884	  -1038.54365036	     -9.43300371	    -69.66693038	     -0.49718356	     50.60671120	     -2.12069162	    146.96990030	     -4.68688952	    -38.20664294	      0.30835998	      5.26753076	      0.55040736	   -146.96990030	      4.68688952	     38.20664294	     -0.04977059	    -19.31304833	      2.16730451	    369.87293721	    463.94410465	    151.92717365	   1040.92044675
      0.04866272	      0.00647126	     13.55308737	      0.00000000	      0.00000000	      0.00000000	      0.00000000	      0.00000000	      0.00000000	      0.00000000	      0.00000000	    116.99866359	      0.00000000	      0.03616424	      0.02613074	      0.02760530	      0.02287243	      0.06074813	      0.06036206	      0.01525851	      0.01651186	      0.06550154	      0.04489616	     -0.00466397	     -0.02853220	     -0.08893413	     -0.05289375	     -0.01720020	     -0.04335564	      0.00000079	     -0.32847694	      0.07222957	     -0.00000086	      2.76307435	     50.99597937	     -9.56042239	      5.21997485	     -0.02578839	      1.48581788	     -2.76307435	    -50.99597937	      9.56042239	     -1.74637766	      0.02558040	     -0.48301696	     -3.31599387	     20.97615968	     -3.40468921	      0.94473225	     -0.02138609	     -1.00501789	      3.31599387	    -20.97615968	      3.40468921	      0.28075727	      0.00368718	     -0.29758878	   -347.21345977	    137.82714868	     63.89254951	     -3.42000214	    -34.79315975	     56.37733176	    347.21345977	   -137.82714868	    -63.89254951	      4.36809626	     11.69909227	     -1.40722121	   -467.61590725	     58.14566704	      3.96111238	      0.96533039	      7.86393213	     22.31186375	    467.61590725	    -58.14566704	     -3.96111238	     -0.71207272	     -7.54661662	      2.92771201	      0.00000000	      0.00000000	      0.00000000	      0.00000000	      0.00000000	      0.00000000	      0.00000000	      0.00000000	      0.00000000	      0.00000000	      0.00000000	      0.00000000	      0.00000000	      0.00000000	      0.00000000	      0.00000000	      0.00000000	      0.00000000	      0.00000000	      0.00000000	      0.00000000	      0.00000000	      0.00000000	      0.00000000	   1086.00517857	     18.22574165	     71.14571840	      0.15985271	    -20.71522758	      5.72064194	  -1086.00517857	    -18.22574165	    -71.14571840	     -0.68528528	     52.20499300	     -5.76705150	    156.88309015	     -3.54580510	    -40.68991674	      0.29413338	      5.61735049	      0.65681061	   -156.88309015	      3.54580510	     40.68991674	     -0.02059363	    -20.57666364	      1.70142893	    378.99309682	    471.23374849	    162.11275715	   1088.48570904
      0.04904656	      0.00655336	     13.73052967	      0.00000000	      0.00000000	      0.00000000	      0.00000000	      0.00000000	      0.00000000	      0.00000000	      0.00000000	    116.99866359	      0.00000000	      0.03617758	      0.02613413	      0.02761987	      0.02287961	      0.06074824	      0.06034198	      0.01525851	      0.01651186	      0.06550154	      0.04489616	     -0.00429686	     -0.02840582	     -0.08845298	     -0.05259609	     -0.01719844	     -0.04367391	      0.00000079	     -0.32847694	      0.07222957	     -0.00000086	      2.76307435	     50.99597937	     -9.56042239	      5.21997485	     -0.02578839	      1.48581788	     -2.76307435	    -50.99597937	      9.56042239	     -1.74637766	      0.02558040	     -0.48301696	     -3.31599387	     20.97615968	     -3.40468921	      0.94473225	     -0.02138609	     -1.00501789	      3.31599387	    -20.97615968	      3.40468921	      0.28075727	      0.00368718	     -0.29758878	   -334.14846534	    137.52054156	     62.02635319	     -3.40695870	    -33.68324172	     56.28087155	    334.14846534	   -137.52054156	    -62.02635319	      4.34591607	     11.24736838	     -1.47925193	   -459.30422964	     59.57321100	      1.29423117	      0.99686969	      8.80718765	     22.92889620	    459.30422964	    -59.57321100	     -1.29423117	     -0.75574743	     -7.50816028	      2.84798321	      0.00000000	      0.00000000	      0.00000000	      0.00000000	      0.00000000	      0.00000000	      0.00000000	      0.00000000	      0.00000000	      0.00000000	      0.00000000	      0.00000000	      0.00000000	      0.00000000	      0.00000000	      0.00000000	      0.00000000	      0.00000000	      0.00000000	      0.00000000	      0.00000000	      0.00000000	      0.00000000	      0.00000000	   1029.16458184	      8.89653048	     68.55779988	     -0.00864599	    -19.67668698	      5.32331477	  -1029.16458184	     -8.89653048	    -68.55779988	     -0.47010174	     49.93874058	     -2.06354090	    140.08724268	     -4.08290196	    -36.43680723	      0.29429142	      5.01630149	      0.58015119	   -140.08724268	      4.08290196	     36.43680723	     -0.04237002	    -18.41563007	      1.88985444	    366.62564658	    463.15334164	    144.80589274	   1031.48391005
      0.04943039	      0.00663592	     13.90895717	      0.00000000	      0.00000000	      0.00000000	      0.00000000	      0.00000000	      0.00000000	      0.00000000	      0.00000000	    116.99866359	      0.00000000	      0.03619138	      0.02613794	      0.02763481	      0.02288714	      0.06074882	      0.06032217	      0.01525851	      0.01651186	      0.06550154	      0.04489616	     -0.00391690	     -0.02826418	     -0.08795992	     -0.05228449	     -0.01718914	     -0.04398776	      0.00000079	     -0.32847694	      0.07222957	     -0.00000086	      2.76307435	     50.99597937	     -9.56042239	      5.21997485	     -0.02578839	      1.48581788	     -2.76307435	    -50.99597937	      9.56042239	     -1.74637766	      0.02558040	     -0.48301696	     -3.31599387	     20.97615968	     -3.40468921	      0.94473225	     -0.02138609	     -1.00501789	      3.31599387	    -20.97615968	      3.40468921	      0.28075727	      0.00368718	     -0.29758878	   -346.59424331	    135.76288934	     64.16791621	     -3.37177261	    -34.87847071	     55.49308995	    346.59424331	   -135.76288934	    -64.16791621	      4.32197974	     11.66641664	     -1.24990967	   -465.24799363	     56.16913805	      3.09068908	      0.92900394	      8.22654494	     21.49923067	    465.24799363	    -56.16913805	     -3.09068908	     -0.69003754	     -7.59844382	      3.05799158	      0.00000000	      0.00000000	      0.00000000	      0.00000000	      0.00000000	      0.00000000	      0.00000000	      0.00000000	      0.00000000	      0.00000000	      0.00000000	      0.00000000	      0.00000000	      0.00000000	      0.00000000	      0.00000000	      0.00000000	      0.00000000	      0.00000000	      0.00000000	      0.00000000	      0.00000000	      0.00000000	      0.00000000	   1086.17180504	     18.58417517	     69.58852930	      0.14845295	    -20.67922124	      6.09438435	  -1086.17180504	    -18.58417517	    -69.58852930	     -0.67813274	     51.54355023	     -6.06944973	    151.88919130	     -2.82257908	    -39.41068946	      0.28001461	      5.43349236	      0.70198271	   -151.88919130	      2.82257908	     39.41068946	     -0.01001999	    -19.92727660	      1.37661875	    377.72563202	    468.63655427	    156.94424434	   1088.55735955
